<svg width="540" height="409" viewBox="0 0 540 409" fill="none" xmlns="http://www.w3.org/2000/svg">
<path opacity="0.3" d="M443.382 97.0986C391.469 61.1908 346.629 46.7255 308.864 53.7028C252.215 64.1687 252.232 139.708 197.82 157.783C143.408 175.859 47.8091 190.592 17.5324 238.174C-12.7444 285.756 -8.98731 330.261 70.3103 364.736C149.608 399.211 200.325 414.838 291.207 407.025C382.089 399.211 508.642 367.033 534.357 292.658C551.5 243.075 521.175 177.889 443.382 97.0986Z" fill="url(#paint0_linear)"/>
<path d="M447.46 282.27L498.51 299.42L538.82 192.24C539.743 189.79 539.543 187.058 538.275 184.767C537.006 182.477 534.797 180.858 532.23 180.34L424.23 158.43L407.23 204.96L447.46 282.27Z" fill="url(#paint1_linear)"/>
<path d="M458.75 190.98C458.75 190.98 476.88 193.23 482.64 202.47C492.77 218.73 491.64 231.57 492.27 242.57C492.9 253.57 495.44 272.4 492.94 280.4C490.44 288.4 485.94 292.57 473.11 290.07C460.28 287.57 439.44 279.24 439.44 279.24L371.61 257.41C371.61 257.41 382.94 252.41 385.44 246.91C387.94 241.41 401.94 203.41 412.61 198.08C423.28 192.75 431.61 189.08 436.26 190.39C440.91 191.7 458.75 190.98 458.75 190.98Z" fill="url(#paint2_linear)"/>
<path d="M464.53 229.57C464.53 229.57 469.65 266.9 468.65 270.74C467.65 274.58 432.65 279.91 432.65 279.91" fill="url(#paint3_linear)"/>
<path d="M386.45 264.4C396.557 258.357 404 248.71 407.28 237.4C412.78 218.4 411.61 211.9 411.61 211.9" fill="url(#paint4_linear)"/>
<path d="M464.26 192.05C464.26 192.05 455.95 206.17 439.75 204.86C423.55 203.55 429.97 191.71 431.07 190.41L436.24 190.3L458.33 191L464.26 192.05Z" fill="#4671B8"/>
<path d="M427.01 135.75C427.01 135.75 429.18 146.42 425.68 148.92C422.18 151.42 415.6 153 416.1 155.84C416.6 158.68 420.94 160.93 420.94 160.93L418.52 171.09L422.77 177.01L440.35 179.18C440.35 179.18 450.52 168.35 450.93 168.26C451.34 168.17 457.26 153.09 457.26 153.09L456.84 146.17L444.01 134.5L427.01 135.75Z" fill="#D9E7F6"/>
<path d="M436.66 185.42C436.66 185.42 436.66 191.05 433.88 195.05C431.1 199.05 439.36 202.61 446.75 199.74C454.14 196.87 458.75 193.14 458.82 190.74C458.89 188.34 458.2 186.93 462.2 180.68C466.2 174.43 466.26 161.07 466.26 161.07L444.75 172.42L436.66 185.42Z" fill="url(#paint5_linear)"/>
<path d="M433.18 107.67C433.18 107.67 433.01 116.67 444.35 118.5C455.69 120.33 476.02 124.17 477.85 149.17C477.85 161 471.35 173.67 466.02 178.5C462.932 181.206 460.484 184.563 458.85 188.33C458.037 181.913 459.199 175.4 462.18 169.66C464.85 163.99 463.18 161.74 458.51 161.91C453.84 162.08 452.84 167.66 451.68 173.33C450.52 179 449.68 186.33 441.51 186.66C433.34 186.99 419.76 186.99 416.51 183.16C414.27 180.52 417.06 172.51 418.03 169.95C418.086 169.799 418.222 169.692 418.382 169.673C418.543 169.654 418.7 169.726 418.79 169.86C419.79 171.41 422.56 174.86 425.18 173.16C428.51 170.99 421.85 166.99 417.68 165.83L419.51 160.16C419.51 160.16 429.01 164.66 433.34 173.16C433.34 173.16 442 176.33 446.75 168.16C451.5 159.99 456.84 152.83 451.17 143.99C447.17 140.16 434.84 141.82 428.17 138.32C424.45 136.38 413.68 123 433.18 107.67Z" fill="#0C3B78"/>
<path d="M454.6 174.52C452.725 174.33 451.345 172.679 451.49 170.8C451.74 167.25 453.11 161.71 459.18 161.09C463.68 160.67 464.93 165.01 462.51 169.42C460.63 172.86 457.99 174.78 454.6 174.52Z" fill="#9EB4DD"/>
<path d="M265.1 211.9C265.01 212.5 262.35 246.17 263.85 253.17C265.35 260.17 354.35 269.34 354.35 269.34L349.18 208.01L265.1 211.9Z" fill="#4E7BBE"/>
<path d="M409.75 202.45C409.293 201.935 409.047 201.268 409.06 200.58C409.06 199.2 409.57 196.79 412.06 193.99C415.94 189.62 418 189.24 419.75 189.05C421.5 188.86 428 188.05 432.69 189.05C433.852 189.246 434.961 189.679 435.95 190.32C433.441 191.037 431.009 192.002 428.69 193.2C424.44 195.33 419.82 197.04 419 200.81C418.94 202.81 421.31 205.45 422.81 209.2C424.31 212.95 422.5 215.01 421.62 215.01C420.74 215.01 412.11 205.1 409.75 202.45Z" fill="#234089"/>
<path d="M409.75 202.45C409.75 202.45 386.75 187.56 367.49 167.81C348.23 148.06 345.74 142.81 345.74 142.81C345.74 142.81 346.87 175.52 348.74 191.35C350.61 207.18 353.87 214.35 342.49 217.56C331.11 220.77 308.12 230.44 268.62 215V134.5C268.62 134.5 258.75 146.42 258.75 151.5C258.75 156.58 267.5 198.84 266.38 200.73C265.26 202.62 255.75 208.42 255.75 208.42C255.75 208.42 238.75 175.92 238.38 154.8C238.38 143.05 256.26 103.43 263.13 93.93C270 84.43 305.38 75.06 327.13 80.81C348.88 86.56 355.13 99.44 358.13 106.56C361.13 113.68 375.63 138.06 387.13 152.44C398.63 166.82 417.54 189.57 417.54 189.57L409.75 202.45Z" fill="#D5E1F3"/>
<path d="M299.45 57.55C299.45 59.3 295.83 77.05 298.2 83.43C299.93 88.07 309.7 96.31 320.7 91.56C326.08 88.81 325.89 84.31 326.89 73.94L299.45 57.55Z" fill="#E8F1FA"/>
<path d="M298.63 48.55C298.63 48.55 297.37 66.41 300.38 72.93C303.39 79.45 314.95 82.93 322.54 79.84C326.88 77.18 326.88 73.93 326.88 73.93L298.63 48.55Z" fill="#1A2953"/>
<path d="M339.13 28.92L316.63 21.05H298.75L296.38 29.49L292.69 34.55L291.57 42.61L298.57 50.42C298.629 50.3758 298.692 50.3389 298.76 50.31C299.93 53.72 307.19 73.42 319.24 75.78C325.6 77.32 332.69 71.61 332.69 71.61C341.98 63.17 339.13 28.92 339.13 28.92Z" fill="#234089"/>
<path d="M300.45 22.61C300.45 22.61 308.83 33.11 322.64 33.36C336.45 33.61 344.64 28.05 345.83 22.61C347.02 17.17 337.21 0.990009 317.02 0.0500092C296.83 -0.889991 289.52 12.8 288.65 22.05C287.78 31.3 287 39.42 298.39 56.36L298.61 49.8C295.661 47.3505 293.829 43.812 293.53 39.99C293.22 35.24 295.28 32.37 297.47 34.12C299.35 35.62 301.11 41.77 301.11 41.77C301.11 41.77 303.95 29.48 300.45 22.61Z" fill="#C3D5ED"/>
<path d="M268.63 134.5L281.84 119.33C281.84 119.33 289.26 175.5 268.63 203.5V134.5Z" fill="#AFC3E5"/>
<path d="M255.75 208.42C255.75 208.42 259.5 225.84 269.5 224.34C279.5 222.84 272.08 206.55 266.38 200.78L255.75 208.42Z" fill="#234089"/>
<path d="M307.85 274.58L393.85 309.79L378.61 232.11C378.196 229.982 376.667 228.243 374.61 227.56L296.44 201.92C295.369 201.568 294.192 201.81 293.348 202.558C292.504 203.305 292.12 204.444 292.34 205.55L307.85 274.58Z" fill="url(#paint6_linear)"/>
<path d="M393.86 309.8L449.31 288.08C450.308 287.682 451.075 285.589 451.064 284.515C451.053 283.441 450.382 282.484 449.376 282.107L383.95 259.23L393.86 309.8Z" fill="url(#paint7_linear)"/>
<path d="M344.642 258.568C346.778 255.6 345.297 250.883 341.335 248.03C337.373 245.178 332.429 245.271 330.293 248.238C328.157 251.205 329.637 255.923 333.599 258.776C337.562 261.628 342.505 261.535 344.642 258.568Z" fill="#D7E3F4"/>
<path d="M183.01 158.17L188.51 174.12L177.76 168.92L177.01 158.17H183.01Z" fill="url(#paint8_linear)"/>
<path d="M181.55 168.17C181.55 168.17 199.63 175.3 205.63 184.17C211.63 193.04 230.76 226.3 234.38 227.8C238 229.3 258.63 232.8 258.63 232.8L251.01 249.55L221.14 245.43L207.27 230.68L181.55 168.17Z" fill="url(#paint9_linear)"/>
<path d="M181.55 168.17C181.55 168.17 194.01 174.55 201.38 185.8C208.75 197.05 216.63 218.59 215.63 223.51C214.63 228.43 205.63 260.05 205.63 260.05L178.26 260.68L158.26 253.93L142.59 195.31L153.75 176.92L165.25 168.17H181.54H181.55Z" fill="url(#paint10_linear)"/>
<path d="M220.35 235.98L302.35 234.48L295.18 281.81L213.52 285.6L220.35 235.98Z" fill="url(#paint11_linear)"/>
<path d="M205.34 263.5C205.34 263.5 223.51 258.92 225.17 260.67C226.83 262.42 224.34 265.17 216.92 266.42C214.75 266.84 215.34 269 219 269.84C222.66 270.68 237.58 271.51 238.92 272.92C240.26 274.33 239.09 276.84 231.92 275.84C224.75 274.84 222.73 274.67 222.37 275.26C222.01 275.85 221.75 277.09 228.17 277.09C234.59 277.09 239.59 275.76 240.09 278.59C240.59 281.42 222.92 280.09 222.72 280.76C222.52 281.43 223.1 281.76 224.43 281.93C225.76 282.1 237.26 280.6 238.43 281.93C239.6 283.26 237.17 286.43 223.14 284.6C223.14 284.6 222.56 285.77 224.06 285.93C225.56 286.09 235.73 286.18 236.31 288.01C237.22 290.87 229.56 291.34 217.31 288.01C205.06 284.68 201.06 283.01 201.06 283.01C201.06 283.01 196.31 270.93 199.73 267.68C201.353 265.983 203.249 264.57 205.34 263.5Z" fill="#E0EAF7"/>
<path d="M111.51 279.9L154.51 270.42L137.96 155.82L83.45 168.29C81.1633 168.819 79.2068 170.29 78.0637 172.339C76.9207 174.389 76.6978 176.827 77.45 179.05L111.51 279.9Z" fill="url(#paint12_linear)"/>
<path d="M130.68 250.67C130.68 250.67 125.51 267.84 148.18 274.17C170.85 280.5 201.01 283 201.01 283C201.01 283 200.18 271.33 205.34 263.5L130.68 250.67Z" fill="url(#paint13_linear)"/>
<path d="M162.18 169.94C162.43 170.44 173.43 177.94 179.06 173.82C184.69 169.7 179.06 150.2 179.06 150.2L158.31 148.95L162.18 169.94Z" fill="url(#paint14_linear)"/>
<path d="M163.01 158.17C163.01 158.17 174.12 164.1 190.16 158.76C193.568 157.623 196.128 154.779 196.9 151.27C198.83 142.46 196.35 129.03 188.76 114.8C178.76 96.05 153.01 120.93 153.01 120.93L163.01 158.17Z" fill="url(#paint15_linear)"/>
<path d="M174.51 95.5C174.51 95.5 176.18 85.33 187.68 89C199.18 92.67 198.35 113.33 189.18 117C180.01 120.67 171.01 121.17 159.51 117C159.51 117 158.34 126.83 159.51 131.83C160.68 136.83 166.68 149.16 164.84 159C163 168.84 167.84 176.33 160.84 191.33C158.17 198.5 157.17 199.83 163.67 208C170.17 216.17 184.17 231.22 168 255.78C158.78 264.17 123 261.84 116.17 233.5C113.84 214.67 123.84 202.67 123.5 199.67C123.16 196.67 119.17 186 123.5 180.34C127.83 174.68 130.17 170.67 127.67 157.51C125.17 144.35 135.17 139.51 135.17 135.34C135.17 131.17 129.57 110.45 144.67 100.01C158.18 90.67 165.68 92.5 174.51 95.5Z" fill="url(#paint16_linear)"/>
<path d="M393.86 309.78L285.01 338.4L255.76 282.99L307.86 274.57L393.86 309.78Z" fill="url(#paint17_linear)"/>
<path d="M211.01 319.92L246.51 353.42L314.39 340.67L265.64 309.8L211.01 319.92Z" fill="url(#paint18_linear)"/>
<path d="M243.89 304.55L304.14 301.42L337.47 329.67L262.76 335.67L243.89 304.55Z" fill="url(#paint19_linear)"/>
<path d="M127.72 350.69C139.064 350.69 148.26 348.201 148.26 345.13C148.26 342.059 139.064 339.57 127.72 339.57C116.376 339.57 107.18 342.059 107.18 345.13C107.18 348.201 116.376 350.69 127.72 350.69Z" fill="url(#paint20_linear)"/>
<path d="M112.36 313.3C112.36 313.3 104.25 325.86 113.36 338.1C123.57 351.77 145.63 351.88 155.49 346.6C163.57 342.27 170.66 331.85 169.87 322.48C169.21 314.69 166.8 312.41 166.8 312.41L112.36 313.3Z" fill="url(#paint21_linear)"/>
<path d="M139.85 320.91C155.082 320.91 167.43 317.763 167.43 313.88C167.43 309.997 155.082 306.85 139.85 306.85C124.618 306.85 112.27 309.997 112.27 313.88C112.27 317.763 124.618 320.91 139.85 320.91Z" fill="url(#paint22_linear)"/>
<path d="M141.01 320.98C141.01 320.98 147.64 305.61 158.01 298.61C168.38 291.61 177.26 275.61 181.01 264.36C181.01 264.36 165.76 264.74 151.64 278.11C137.52 291.48 141.01 320.98 141.01 320.98Z" fill="url(#paint23_linear)"/>
<path d="M163.01 278.35C163.01 278.35 143.39 308.48 141.01 320.98C141.01 320.98 145.83 290.03 163.01 278.35Z" fill="#1EA06C"/>
<path d="M90.26 268.6C90.26 268.6 118.43 268.23 127.72 286.48C137.01 304.73 138.01 319.86 138.01 319.86C138.01 319.86 127.39 304.11 113.14 297.36C98.89 290.61 90.26 268.6 90.26 268.6Z" fill="url(#paint24_linear)"/>
<path d="M138.01 319.85C138.01 319.85 128.26 293.35 109.26 280.98L138.01 319.85Z" fill="#1EA06C"/>
<path d="M110.63 229.98C110.63 229.98 132.51 241.36 139.38 256.23C146.25 271.1 144.13 298.36 138.01 308.61C138.01 308.61 132.91 290.11 127.15 279.24C121.39 268.37 114.51 265.24 112.39 248.99C110.27 232.74 110.63 229.98 110.63 229.98Z" fill="url(#paint25_linear)"/>
<path d="M124.88 251.85C124.88 251.85 137.76 263.73 138.01 308.6C138.01 308.6 135.78 290.97 131.45 272.85C127.12 254.73 124.88 251.85 124.88 251.85Z" fill="#1EA06C"/>
<defs>
<linearGradient id="paint0_linear" x1="245.213" y1="130.993" x2="137.126" y2="357.62" gradientUnits="userSpaceOnUse">
<stop stop-color="#F7FBFF"/>
<stop offset="1" stop-color="#D9EBFF"/>
</linearGradient>
<linearGradient id="paint1_linear" x1="407.26" y1="299.398" x2="539.39" y2="299.398" gradientUnits="userSpaceOnUse">
<stop stop-color="#9AB3DD"/>
<stop offset="1" stop-color="#D7E3F4"/>
</linearGradient>
<linearGradient id="paint2_linear" x1="411.76" y1="152.57" x2="352.458" y2="274.191" gradientUnits="userSpaceOnUse">
<stop stop-color="#6060FA"/>
<stop offset="1" stop-color="#161874"/>
</linearGradient>
<linearGradient id="paint3_linear" x1="446.184" y1="281.616" x2="484.768" y2="288.384" gradientUnits="userSpaceOnUse">
<stop stop-color="#3F66AF" stop-opacity="0.01"/>
<stop offset="0.980446" stop-color="#827BF8"/>
</linearGradient>
<linearGradient id="paint4_linear" x1="395.914" y1="266.179" x2="423.345" y2="269.405" gradientUnits="userSpaceOnUse">
<stop stop-color="#3F66AF" stop-opacity="0.01"/>
<stop offset="0.980446" stop-color="#827BF8"/>
</linearGradient>
<linearGradient id="paint5_linear" x1="454.699" y1="207.685" x2="473.844" y2="181.459" gradientUnits="userSpaceOnUse">
<stop stop-color="#84A2D4"/>
<stop offset="1" stop-color="#5268AA"/>
</linearGradient>
<linearGradient id="paint6_linear" x1="340.959" y1="359.326" x2="448.503" y2="262.403" gradientUnits="userSpaceOnUse">
<stop stop-color="#00E5FF"/>
<stop offset="1" stop-color="#008CFF"/>
</linearGradient>
<linearGradient id="paint7_linear" x1="361.937" y1="296.317" x2="423.919" y2="345.089" gradientUnits="userSpaceOnUse">
<stop stop-color="#176EE5"/>
<stop offset="1" stop-color="#1D3E94"/>
</linearGradient>
<linearGradient id="paint8_linear" x1="177.01" y1="174.125" x2="188.51" y2="174.125" gradientUnits="userSpaceOnUse">
<stop stop-color="#2A57A5"/>
<stop offset="1" stop-color="#4A7EC0"/>
</linearGradient>
<linearGradient id="paint9_linear" x1="227.146" y1="247.467" x2="236.745" y2="211.424" gradientUnits="userSpaceOnUse">
<stop stop-color="#1F3362"/>
<stop offset="1" stop-color="#255DA8"/>
</linearGradient>
<linearGradient id="paint10_linear" x1="142.63" y1="260.652" x2="215.72" y2="260.652" gradientUnits="userSpaceOnUse">
<stop stop-color="#234089"/>
<stop offset="1" stop-color="#2C67B1"/>
</linearGradient>
<linearGradient id="paint11_linear" x1="213.52" y1="285.6" x2="302.35" y2="285.6" gradientUnits="userSpaceOnUse">
<stop stop-color="#F58344"/>
<stop offset="1" stop-color="#FED25F"/>
</linearGradient>
<linearGradient id="paint12_linear" x1="77" y1="279.909" x2="154.51" y2="279.909" gradientUnits="userSpaceOnUse">
<stop stop-color="#9AB3DD"/>
<stop offset="1" stop-color="#D7E3F4"/>
</linearGradient>
<linearGradient id="paint13_linear" x1="142.113" y1="283.289" x2="203.926" y2="261.667" gradientUnits="userSpaceOnUse">
<stop stop-color="#224289"/>
<stop offset="1" stop-color="#4672B8"/>
</linearGradient>
<linearGradient id="paint14_linear" x1="158.3" y1="175.049" x2="181.55" y2="175.049" gradientUnits="userSpaceOnUse">
<stop stop-color="#95AAD8"/>
<stop offset="1" stop-color="#E8F1FA"/>
</linearGradient>
<linearGradient id="paint15_linear" x1="153.01" y1="160.984" x2="197.53" y2="160.984" gradientUnits="userSpaceOnUse">
<stop stop-color="#95AAD8"/>
<stop offset="1" stop-color="#E8F1FA"/>
</linearGradient>
<linearGradient id="paint16_linear" x1="184.466" y1="260.04" x2="184.466" y2="68.6484" gradientUnits="userSpaceOnUse">
<stop stop-color="#4488EC"/>
<stop offset="1" stop-color="#00317D"/>
</linearGradient>
<linearGradient id="paint17_linear" x1="255.76" y1="338.405" x2="393.86" y2="338.405" gradientUnits="userSpaceOnUse">
<stop stop-color="#D4DFF2" stop-opacity="0.01"/>
<stop offset="1" stop-color="#D4DFF2"/>
</linearGradient>
<linearGradient id="paint18_linear" x1="201.507" y1="319.891" x2="209.072" y2="361.084" gradientUnits="userSpaceOnUse">
<stop stop-color="#A8B9D3"/>
<stop offset="1" stop-color="#D4E2F3"/>
</linearGradient>
<linearGradient id="paint19_linear" x1="234.169" y1="301.151" x2="236.303" y2="337.236" gradientUnits="userSpaceOnUse">
<stop stop-color="#BACDE9"/>
<stop offset="1" stop-color="#E5EEF8"/>
</linearGradient>
<linearGradient id="paint20_linear" x1="77.5556" y1="337.474" x2="79.2756" y2="360.229" gradientUnits="userSpaceOnUse">
<stop stop-color="#CBD8EF"/>
<stop offset="1" stop-color="#D4E2F3" stop-opacity="0.3"/>
</linearGradient>
<linearGradient id="paint21_linear" x1="105.594" y1="348.901" x2="161.332" y2="346.97" gradientUnits="userSpaceOnUse">
<stop stop-color="#BACFEB"/>
<stop offset="1" stop-color="#EEF4FB"/>
</linearGradient>
<linearGradient id="paint22_linear" x1="69.4712" y1="303.414" x2="71.4973" y2="333.652" gradientUnits="userSpaceOnUse">
<stop stop-color="#BFD1EB"/>
<stop offset="1" stop-color="#85A6D7"/>
</linearGradient>
<linearGradient id="paint23_linear" x1="151.77" y1="246.171" x2="117.428" y2="285.527" gradientUnits="userSpaceOnUse">
<stop stop-color="#6BC49D"/>
<stop offset="1" stop-color="#3CBA91"/>
</linearGradient>
<linearGradient id="paint24_linear" x1="90.26" y1="319.85" x2="138.01" y2="319.85" gradientUnits="userSpaceOnUse">
<stop stop-color="#6BC49D"/>
<stop offset="1" stop-color="#3CBA91"/>
</linearGradient>
<linearGradient id="paint25_linear" x1="110.61" y1="308.61" x2="143.66" y2="308.61" gradientUnits="userSpaceOnUse">
<stop stop-color="#85CBA3"/>
<stop offset="1" stop-color="#3CBA91"/>
</linearGradient>
</defs>
</svg>
