<svg width="598" height="420" viewBox="0 0 598 420" fill="none" xmlns="http://www.w3.org/2000/svg">
<path d="M419.312 371.185C199.011 409.144 72.7246 410.857 40.4541 376.325C-7.95172 324.528 -35.3424 111.736 91.9545 103.252C219.251 94.7674 167.162 126.627 319.617 28.7109C472.072 -69.205 640.105 105.688 588.476 218.286C554.056 293.352 497.668 344.318 419.312 371.185Z" fill="url(#paint0_linear)"/>
<path d="M211.5 295C212.328 295 213 294.328 213 293.5C213 292.672 212.328 292 211.5 292C210.672 292 210 292.672 210 293.5C210 294.328 210.672 295 211.5 295Z" fill="white"/>
<path d="M202 308C202.552 308 203 307.552 203 307C203 306.448 202.552 306 202 306C201.448 306 201 306.448 201 307C201 307.552 201.448 308 202 308Z" fill="white"/>
<path d="M196 289C196.552 289 197 288.552 197 288C197 287.448 196.552 287 196 287C195.448 287 195 287.448 195 288C195 288.552 195.448 289 196 289Z" fill="white"/>
<path opacity="0.750977" d="M181 318C181.552 318 182 317.552 182 317C182 316.448 181.552 316 181 316C180.448 316 180 316.448 180 317C180 317.552 180.448 318 181 318Z" fill="white"/>
<path d="M248.068 382.811C250.705 379.32 251.15 375.156 249.403 370.319C246.782 363.063 245.268 336.447 260 321.238C274.733 306.029 284.283 307.424 281.692 299.311C279.1 291.197 302.012 297.012 291.329 311.733C280.646 326.453 257.701 347.315 254.207 365.568C251.878 377.737 249.831 383.484 248.068 382.811Z" fill="url(#paint1_linear)"/>
<path d="M279.1 303.856L281.721 300.379C283.634 305.085 277.956 314.936 264.688 329.932C254.702 341.219 251.586 349.923 251.15 362.526C250.713 375.129 251.268 381.8 248.068 382.811C248.376 382.311 248.529 378.875 248.529 372.501C248.529 362.94 244.599 352.53 250.276 337.32C255.954 322.109 261.194 319.311 262.941 318.198C264.325 316.749 269.711 311.968 279.1 303.856Z" fill="#1B3668"/>
<path d="M241.542 382.811C242.535 368.687 236.712 357.792 224.073 350.125C205.113 338.624 187.757 342.118 179.09 359.049C173.311 370.337 166.615 374.821 159 372.501C164.532 376.571 174.577 374.26 189.134 365.568C210.971 352.53 238.485 370.443 236.301 383.387C234.845 392.016 236.592 391.824 241.542 382.811Z" fill="url(#paint2_linear)"/>
<path d="M234.991 375.998C226.547 358.462 214.319 353.426 198.306 360.89C174.285 372.087 171.833 371.034 169.481 373.299C167.914 374.809 169.952 375.998 175.596 376.868L202.673 368.861L214.464 365.568L234.991 375.998Z" fill="#1B3668"/>
<path d="M243.725 382.811C244.016 374.87 242.997 368.833 240.668 364.699C237.174 358.498 237.611 345.714 231.06 339.434C224.509 333.153 217.958 316.114 225.383 302.243C232.807 288.371 231.06 276.901 231.06 274.304C231.06 271.706 235.427 274.455 235.427 277.204C235.427 279.953 234.554 285.824 237.611 290.494C240.668 295.164 236.301 306.819 237.611 311.733C238.921 316.646 245.035 323.884 243.725 335.217C242.415 346.549 246.37 367.324 247.219 371.653C247.785 374.538 247.785 378.884 247.219 384.69L243.725 382.811Z" fill="url(#paint3_linear)"/>
<path d="M225.216 382.811H257.803C260.209 382.811 262.159 384.753 262.159 387.149C262.159 387.503 262.116 387.856 262.03 388.199L254.207 419.458H228.44L220.978 388.152C220.423 385.82 221.869 383.481 224.21 382.928C224.54 382.85 224.877 382.811 225.216 382.811V382.811Z" fill="url(#paint4_linear)"/>
<path d="M258.574 382.811C251.295 405.793 241.251 418.009 228.44 419.458H254.207L262.216 387.454C262.717 385.45 261.493 383.421 259.482 382.922C259.185 382.848 258.88 382.811 258.574 382.811Z" fill="#FF7154"/>
<path d="M143.688 140.591V153.86C143.688 155.392 144.93 156.635 146.462 156.635H154.012C155.544 156.635 156.786 157.877 156.786 159.409V167.853C156.786 169.385 158.028 170.628 159.56 170.628H165.064" stroke="url(#paint5_linear)" stroke-width="0.96096" stroke-linecap="round" stroke-dasharray="1.92"/>
<path d="M143.566 140.116C147.163 140.116 150.078 137.204 150.078 133.612C150.078 130.019 147.163 127.107 143.566 127.107C139.97 127.107 137.055 130.019 137.055 133.612C137.055 137.204 139.97 140.116 143.566 140.116Z" fill="#0029A3"/>
<path opacity="0.3" d="M143.566 143.151C148.84 143.151 153.116 138.88 153.116 133.612C153.116 128.343 148.84 124.072 143.566 124.072C138.293 124.072 134.017 128.343 134.017 133.612C134.017 138.88 138.293 143.151 143.566 143.151Z" fill="url(#paint6_linear)"/>
<path d="M146.125 130.436C146.375 130.063 146.88 129.962 147.254 130.212C147.628 130.462 147.728 130.967 147.478 131.34L143.681 137.009C143.389 137.445 142.767 137.495 142.409 137.111L139.585 134.082C139.278 133.753 139.296 133.239 139.625 132.932C139.954 132.626 140.469 132.645 140.776 132.973L142.9 135.251L146.125 130.436Z" fill="#FEFEFE"/>
<rect opacity="0.3" x="165.211" y="135.273" width="119.577" height="87.4145" rx="3.456" fill="url(#paint7_linear)"/>
<rect x="156.542" y="126.601" width="119.577" height="87.4145" rx="3.456" stroke="url(#paint8_linear)" stroke-width="1.2"/>
<path d="M200.328 135.318V222.733H167.637C166.258 222.733 165.14 221.615 165.14 220.236V137.816C165.14 136.437 166.258 135.318 167.637 135.318H200.328Z" fill="url(#paint9_linear)"/>
<path d="M284.717 146.206H165.14V137.816C165.14 136.437 166.258 135.318 167.637 135.318H282.22C283.599 135.318 284.717 136.437 284.717 137.816V146.206Z" fill="#00C9FF"/>
<path d="M188.532 142.651C189.794 142.651 190.818 141.628 190.818 140.367C190.818 139.106 189.794 138.084 188.532 138.084C187.269 138.084 186.246 139.106 186.246 140.367C186.246 141.628 187.269 142.651 188.532 142.651Z" fill="white"/>
<path d="M180.92 142.651C182.182 142.651 183.206 141.628 183.206 140.367C183.206 139.106 182.182 138.084 180.92 138.084C179.657 138.084 178.634 139.106 178.634 140.367C178.634 141.628 179.657 142.651 180.92 142.651Z" fill="white"/>
<path d="M173.308 142.651C174.57 142.651 175.594 141.628 175.594 140.367C175.594 139.106 174.57 138.084 173.308 138.084C172.045 138.084 171.022 139.106 171.022 140.367C171.022 141.628 172.045 142.651 173.308 142.651Z" fill="white"/>
<path d="M490.141 69.7628V86.3797C490.141 88.2908 488.588 89.8401 486.673 89.8401H477.199C475.284 89.8401 473.732 91.3894 473.732 93.3006V103.891C473.732 105.803 472.179 107.352 470.264 107.352H463.361" stroke="url(#paint10_linear)" stroke-width="1.2012" stroke-linecap="round" stroke-dasharray="2.4"/>
<path d="M490.186 69.1687C494.692 69.1687 498.344 65.5241 498.344 61.0282C498.344 56.5324 494.692 52.8877 490.186 52.8877C485.681 52.8877 482.029 56.5324 482.029 61.0282C482.029 65.5241 485.681 69.1687 490.186 69.1687Z" fill="#0029A3"/>
<path opacity="0.3" d="M490.186 72.9665C496.793 72.9665 502.15 67.6215 502.15 61.0282C502.15 54.4349 496.793 49.09 490.186 49.09C483.579 49.09 478.223 54.4349 478.223 61.0282C478.223 67.6215 483.579 72.9665 490.186 72.9665Z" fill="url(#paint11_linear)"/>
<path d="M493.392 57.054C493.705 56.5869 494.338 56.4616 494.806 56.7741C495.274 57.0866 495.4 57.7186 495.087 58.1857L490.33 65.2798C489.964 65.8252 489.185 65.8877 488.737 65.4075L485.198 61.6166C484.814 61.2054 484.837 60.5615 485.249 60.1785C485.661 59.7954 486.306 59.8183 486.69 60.2295L489.351 63.0802L493.392 57.054Z" fill="#FEFEFE"/>
<rect width="149.804" height="109.394" rx="4.32" transform="matrix(-1 0 0 1 463.266 63.1643)" fill="url(#paint12_linear)"/>
<path opacity="0.612956" d="M419.183 63.1643V172.558H460.145C461.869 172.558 463.266 171.164 463.266 169.444V66.2788C463.266 64.5587 461.869 63.1643 460.145 63.1643L419.183 63.1643Z" fill="url(#paint13_linear)"/>
<path d="M313.462 76.7899H463.266V66.2788C463.266 64.5587 461.869 63.1643 460.145 63.1643H316.583C314.86 63.1643 313.462 64.5587 313.462 66.2788V76.7899Z" fill="#00C9FF"/>
<path d="M433.961 72.3403C432.38 72.3403 431.098 71.0608 431.098 69.4826C431.098 67.9043 432.38 66.6248 433.961 66.6248C435.543 66.6248 436.825 67.9043 436.825 69.4826C436.825 71.0608 435.543 72.3403 433.961 72.3403Z" fill="white"/>
<path d="M443.498 72.3403C441.916 72.3403 440.634 71.0608 440.634 69.4826C440.634 67.9043 441.916 66.6248 443.498 66.6248C445.079 66.6248 446.361 67.9043 446.361 69.4826C446.361 71.0608 445.079 72.3403 443.498 72.3403Z" fill="white"/>
<path d="M453.034 72.3403C451.452 72.3403 450.17 71.0608 450.17 69.4826C450.17 67.9043 451.452 66.6248 453.034 66.6248C454.615 66.6248 455.897 67.9043 455.897 69.4826C455.897 71.0608 454.615 72.3403 453.034 72.3403Z" fill="white"/>
<g opacity="0.536714">
<path fill-rule="evenodd" clip-rule="evenodd" d="M225.571 160H247.857C252.591 160 256.429 163.838 256.429 168.571V190.857C256.429 195.591 252.591 199.429 247.857 199.429H225.571C220.838 199.429 217 195.591 217 190.857V168.571C217 163.838 220.838 160 225.571 160Z" stroke="#053D69" stroke-width="1.2" stroke-linecap="round" stroke-dasharray="2.4"/>
</g>
<mask id="mask0" mask-type="alpha" maskUnits="userSpaceOnUse" x="340" y="97" width="48" height="48">
<path fill-rule="evenodd" clip-rule="evenodd" d="M348.727 97H379.273C384.093 97 388 100.907 388 105.727V136.273C388 141.093 384.093 145 379.273 145H348.727C343.907 145 340 141.093 340 136.273V105.727C340 100.907 343.907 97 348.727 97Z" fill="white"/>
</mask>
<g mask="url(#mask0)">
<path fill-rule="evenodd" clip-rule="evenodd" d="M348.727 97H379.273C384.093 97 388 100.907 388 105.727V136.273C388 141.093 384.093 145 379.273 145H348.727C343.907 145 340 141.093 340 136.273V105.727C340 100.907 343.907 97 348.727 97Z" stroke="white" stroke-width="1.2" stroke-linecap="round" stroke-dasharray="1.92"/>
</g>
<g opacity="0.69701">
<path d="M361.461 108.183L373.715 112.432C374.633 112.75 375.119 113.753 374.801 114.671C374.795 114.688 374.788 114.705 374.782 114.722L368.71 130.614C368.371 131.502 367.388 131.96 366.49 131.649L354.237 127.4C353.319 127.081 352.832 126.079 353.151 125.161C353.157 125.144 353.163 125.127 353.17 125.11L359.241 109.218C359.58 108.33 360.563 107.872 361.461 108.183Z" fill="url(#paint14_linear)"/>
<path d="M358.579 109.381L371.608 110.292C372.578 110.36 373.309 111.2 373.241 112.17L372.109 128.352L368.632 130.545L357.156 129.743C356.186 129.675 355.455 128.834 355.523 127.865L356.701 111.013C356.769 110.044 357.61 109.313 358.579 109.381Z" fill="url(#paint15_linear)"/>
<path d="M372.109 128.352L368.801 128.121L368.632 130.545L372.109 128.352Z" fill="white"/>
<path d="M368.801 128.121L368.632 130.545L366.087 130.367L368.801 128.121Z" fill="#384A65"/>
</g>
<path d="M281.137 160.553L311.463 148.294C312.877 147.723 314.486 148.405 315.056 149.818C315.108 149.947 315.151 150.079 315.183 150.215L321.508 176.931C321.848 178.367 320.998 179.817 319.578 180.222L288.444 189.109C286.978 189.528 285.451 188.679 285.033 187.214C285.022 187.174 285.011 187.133 285.002 187.093L279.484 163.748C279.17 162.421 279.873 161.064 281.137 160.553Z" fill="#00209E"/>
<path d="M282.715 192.599L273.616 170.074C273.196 169.034 273.699 167.85 274.739 167.43L282.873 164.143C283.476 163.899 284.161 163.959 284.712 164.305L288.134 166.449C288.686 166.794 289.37 166.855 289.974 166.611L310.191 158.441C311.231 158.02 312.415 158.522 312.835 159.562L320.081 177.499C320.501 178.539 319.998 179.723 318.958 180.143L285.359 193.721C284.319 194.141 283.135 193.639 282.715 192.599Z" fill="url(#paint16_linear)"/>
<path d="M433.907 407.44H437.043C438.944 407.44 440.484 408.978 440.484 410.874C440.484 412.771 438.944 414.308 437.043 414.308H418.445C416.545 414.308 415.005 412.771 415.005 410.874C415.005 408.978 416.545 407.44 418.445 407.44H421.985C423.182 396.966 425.233 376.076 425.233 355.837C425.233 328.736 421.142 305.533 421.142 305.533H434.718C434.718 305.533 430.441 330.779 430.441 355.095C430.441 373.839 432.666 396.348 433.907 407.44Z" fill="url(#paint17_linear)"/>
<path d="M447.391 302.109C449.937 297.597 463.512 272.692 462.236 256.742H445.755L439.594 221.424H492.289C494.456 221.424 495.719 223.863 494.466 225.627L473.854 254.62C473.854 254.62 458.265 283.425 459.08 302.109H459.694C461.736 302.109 462.719 304.627 461.2 305.989C458.516 308.395 454.733 311.068 451.004 311.269H394.761L404.972 302.823L415.408 302.109H447.391Z" fill="url(#paint18_linear)"/>
<path d="M320.922 399.095L315.418 404.589H325.743V401.196L324.069 396.795L320.922 399.095Z" fill="#6FA9F6"/>
<path d="M377.075 329.135C377.075 329.135 400.312 311.263 404.972 298.969L364.102 322.87L341.443 344.896L319.326 396.933C319.326 396.933 322.395 402.781 327.137 400.832C327.137 400.832 353.362 373.266 353.919 369.926C354.443 366.794 371.386 342.381 373.51 339.332C373.656 339.122 373.777 338.895 373.87 338.656C374.329 337.468 375.824 333.52 377.075 329.135Z" fill="url(#paint19_linear)"/>
<path d="M391.215 145.89C391.215 145.89 392.349 159.499 393.255 166.112C394.162 172.725 405.53 177.388 405.879 179.129C406.228 180.869 405.321 188.109 405.321 188.109C405.321 188.109 416.34 185.185 418.991 182.122C418.991 182.122 413.103 175.089 419.836 164.278L413.342 154.418L391.215 145.89Z" fill="#6FA9F6"/>
<path d="M403.81 161.703C403.81 161.703 403.81 156.598 398.324 153.165C392.837 149.731 388.28 144.487 392.558 140.728C396.836 136.969 400.276 144.765 407.25 145.879C414.225 146.992 429.569 144.997 426.222 154.743C422.873 164.488 423.246 164.58 416.643 164.163C410.04 163.745 408.111 164.557 407.437 165.787C407.437 165.787 410.776 159.43 408.781 158.315C406.786 157.202 405.46 160.056 403.81 161.703Z" fill="#1B3668"/>
<path d="M407.623 223.887L391.215 236.277C391.215 236.277 386.49 261.128 379.864 267.74C379.864 267.74 396.882 252.983 407.623 223.887Z" fill="#330C72"/>
<path d="M373.727 209.548C373.727 209.548 366.194 214.838 363.265 216.369C360.336 217.901 357.825 222.494 357.825 222.494C357.825 222.494 357.407 218.875 352.943 217.622C348.479 216.369 326.161 203.979 319.187 197.436C319.187 197.436 316.641 186.125 311.375 184.315C306.11 182.505 311.236 184.315 311.236 184.315L308.76 184.001C308.76 184.001 302.518 174.326 299.833 173.142C299.833 173.142 297.879 174.082 299.065 176.623C300.251 179.164 305.063 185.916 305.063 185.916C305.063 185.916 302.014 185.56 299.065 188.809C298.536 189.392 298.536 190.944 299.461 191.374C303.055 196.475 301.565 193.041 308.76 201.617C315.955 210.193 306.145 204.466 331.392 227.437L353.013 249.016L387.161 234.469L373.727 209.548Z" fill="#6FA9F6"/>
<path d="M383.014 269.675C383.014 269.675 363.962 276.651 341.644 295.305C319.326 313.96 319.326 317.998 319.326 317.998C319.326 317.998 362.01 371.318 374.704 380.924L386.002 391.504L393.744 383.708C393.744 383.708 365.776 324.541 364.102 322.87C364.102 322.87 403.093 311.541 420.144 298.969L400.229 269.675H383.014Z" fill="url(#paint20_linear)"/>
<path opacity="0.349237" d="M382.84 269.926L379.989 270.917C391.396 277.846 398.288 283.209 400.664 287.004C403.04 290.799 408.506 295.542 417.062 301.235L419.914 299.1L405.655 279.888L382.84 269.926Z" fill="#0C3B78"/>
<path d="M418.836 182.405C418.836 182.405 410.677 187.416 396.448 191.176C382.221 194.934 383.615 200.642 373.572 209.83C373.572 209.83 379.254 234.055 391.06 236.56C391.06 236.56 406.909 224.449 407.468 224.17C408.026 223.891 390.868 257.443 379.71 268.024C379.71 268.024 399.796 280.136 406.073 286.261C412.35 292.387 420.161 306.03 434.947 299.208C449.733 292.387 448.338 270.808 443.456 242.546C438.574 214.285 434.668 202.592 433.273 199.668C431.878 196.744 420.161 182.405 418.836 182.405" fill="url(#paint21_linear)"/>
<path d="M315.418 404.588C315.418 404.588 304.401 409.464 299.659 410.438C299.659 410.438 296.115 412.929 309.004 411.969C316.676 411.398 325.743 412.398 325.743 412.398V404.588H315.418Z" fill="#0C3B78"/>
<path d="M393.084 384.372L397.161 392.061C397.161 392.061 394.372 397.908 392.418 398.326L387.6 389.895L393.084 384.372Z" fill="#6FA9F6"/>
<path d="M392.377 398.464C392.109 399.372 390.597 404.52 390.226 406.316C390.17 406.586 389.973 406.798 389.707 406.871C388.391 407.237 384.467 408.357 382.137 409.338C381.683 409.53 381.539 410.099 381.842 410.486L383.09 412.082C383.192 412.212 383.331 412.304 383.491 412.346C384.464 412.592 388.129 413.507 390.566 413.912C390.597 413.917 390.623 413.921 390.655 413.922C391.175 413.938 395.705 413.719 401.346 401.807C406.83 390.224 398.336 392.559 396.84 393.045C396.7 393.09 396.578 393.173 396.486 393.288L392.511 398.211C392.45 398.287 392.405 398.371 392.377 398.464Z" fill="#0C3B78"/>
<g opacity="0.736444">
<path d="M234.463 168.533L244.909 172.164C245.688 172.434 246.112 173.254 245.855 173.995C245.851 174.009 245.846 174.023 245.84 174.037L240.91 186.909C240.636 187.625 239.813 187.983 239.051 187.718L228.605 184.087C227.826 183.817 227.403 182.997 227.659 182.256C227.664 182.242 227.669 182.228 227.674 182.214L232.604 169.342C232.878 168.626 233.701 168.268 234.463 168.533Z" fill="url(#paint22_linear)"/>
<path d="M232.124 169.576L243.234 170.353C244.057 170.41 244.679 171.091 244.625 171.873L243.708 184.979L240.753 186.745L230.971 186.061C230.149 186.003 229.526 185.323 229.581 184.541L230.536 170.887C230.59 170.105 231.301 169.518 232.124 169.576Z" fill="url(#paint23_linear)"/>
<path d="M243.708 184.979L240.89 184.782L240.753 186.745L243.708 184.979Z" fill="white"/>
<path d="M240.89 184.782L240.753 186.745L238.585 186.593L240.89 184.782Z" fill="#384A65"/>
</g>
<path d="M242.335 171.359C250.557 179.424 263.029 183.133 279.752 182.485" stroke="url(#paint24_linear)" stroke-width="2.4" stroke-linecap="round" stroke-dasharray="12"/>
<path d="M240.6 188.625C249.744 195.629 262.575 197.79 279.094 195.109" stroke="url(#paint25_linear)" stroke-width="2.4" stroke-linecap="round" stroke-dasharray="13.2"/>
<path d="M276 96H265.218C260.402 96 256.209 99.2928 255.063 103.975L246 141" stroke="url(#paint26_linear)" stroke-width="2.68128" stroke-linecap="round" stroke-dasharray="1.93"/>
<path d="M283.05 102.937C286.729 102.937 289.712 99.965 289.712 96.2988C289.712 92.6327 286.729 89.6607 283.05 89.6607C279.371 89.6607 276.389 92.6327 276.389 96.2988C276.389 99.965 279.371 102.937 283.05 102.937Z" fill="white" stroke="url(#paint27_linear)" stroke-width="5.04"/>
<path d="M168.328 148.93H194.326C195.372 148.93 196.221 149.776 196.221 150.818C196.221 151.861 195.372 152.706 194.326 152.706H168.328C167.281 152.706 166.433 151.861 166.433 150.818C166.433 149.776 167.281 148.93 168.328 148.93Z" fill="white"/>
<path d="M168.328 183.505H194.326C195.372 183.505 196.221 184.35 196.221 185.393C196.221 186.436 195.372 187.281 194.326 187.281H168.328C167.281 187.281 166.433 186.436 166.433 185.393C166.433 184.35 167.281 183.505 168.328 183.505Z" fill="white"/>
<path opacity="0.7" d="M167.41 155.067H186.224C186.764 155.067 187.202 155.503 187.202 156.041C187.202 156.579 186.764 157.015 186.224 157.015H167.41C166.87 157.015 166.433 156.579 166.433 156.041C166.433 155.503 166.87 155.067 167.41 155.067Z" fill="white"/>
<path opacity="0.7" d="M167.41 159.376H186.224C186.764 159.376 187.202 159.812 187.202 160.35C187.202 160.888 186.764 161.324 186.224 161.324H167.41C166.87 161.324 166.433 160.888 166.433 160.35C166.433 159.812 166.87 159.376 167.41 159.376Z" fill="white"/>
<path opacity="0.7" d="M167.41 163.685H186.224C186.764 163.685 187.202 164.121 187.202 164.659C187.202 165.197 186.764 165.633 186.224 165.633H167.41C166.87 165.633 166.433 165.197 166.433 164.659C166.433 164.121 166.87 163.685 167.41 163.685Z" fill="white"/>
<path opacity="0.7" d="M167.41 167.993H186.224C186.764 167.993 187.202 168.429 187.202 168.967C187.202 169.505 186.764 169.941 186.224 169.941H167.41C166.87 169.941 166.433 169.505 166.433 168.967C166.433 168.429 166.87 167.993 167.41 167.993Z" fill="white"/>
<path opacity="0.7" d="M167.41 189.642H186.224C186.764 189.642 187.202 190.078 187.202 190.616C187.202 191.153 186.764 191.59 186.224 191.59H167.41C166.87 191.59 166.433 191.153 166.433 190.616C166.433 190.078 166.87 189.642 167.41 189.642Z" fill="white"/>
<path opacity="0.7" d="M167.41 193.95H186.224C186.764 193.95 187.202 194.386 187.202 194.924C187.202 195.462 186.764 195.898 186.224 195.898H167.41C166.87 195.898 166.433 195.462 166.433 194.924C166.433 194.386 166.87 193.95 167.41 193.95Z" fill="white"/>
<defs>
<linearGradient id="paint0_linear" x1="469.95" y1="195.339" x2="436.452" y2="-89.9046" gradientUnits="userSpaceOnUse">
<stop stop-color="white" stop-opacity="0.01"/>
<stop offset="1" stop-color="#B0CEFB"/>
</linearGradient>
<linearGradient id="paint1_linear" x1="264.038" y1="255.754" x2="194.957" y2="299.428" gradientUnits="userSpaceOnUse">
<stop stop-color="#1672EB"/>
<stop offset="1" stop-color="#05B8D8"/>
</linearGradient>
<linearGradient id="paint2_linear" x1="255.393" y1="366.758" x2="214.794" y2="323.865" gradientUnits="userSpaceOnUse">
<stop stop-color="#00E5FF"/>
<stop offset="1" stop-color="#008CFF"/>
</linearGradient>
<linearGradient id="paint3_linear" x1="249.597" y1="403.777" x2="302.918" y2="374.731" gradientUnits="userSpaceOnUse">
<stop stop-color="#00E5FF"/>
<stop offset="1" stop-color="#008CFF"/>
</linearGradient>
<linearGradient id="paint4_linear" x1="220.859" y1="429.492" x2="284.774" y2="429.492" gradientUnits="userSpaceOnUse">
<stop stop-color="#FFCD76"/>
<stop offset="1" stop-color="#FF7154"/>
</linearGradient>
<linearGradient id="paint5_linear" x1="153.933" y1="184.401" x2="181.924" y2="165.306" gradientUnits="userSpaceOnUse">
<stop stop-color="#00E5FF"/>
<stop offset="1" stop-color="#008CFF"/>
</linearGradient>
<linearGradient id="paint6_linear" x1="143.171" y1="151.9" x2="162.251" y2="133.592" gradientUnits="userSpaceOnUse">
<stop stop-color="#00E5FF"/>
<stop offset="1" stop-color="#008CFF"/>
</linearGradient>
<linearGradient id="paint7_linear" x1="222.522" y1="262.771" x2="306.898" y2="152.135" gradientUnits="userSpaceOnUse">
<stop stop-color="#00E5FF"/>
<stop offset="1" stop-color="#008CFF"/>
</linearGradient>
<linearGradient id="paint8_linear" x1="231.529" y1="151.327" x2="203.911" y2="99.2171" gradientUnits="userSpaceOnUse">
<stop stop-color="#00E5FF" stop-opacity="0.01"/>
<stop offset="1" stop-color="#008CFF"/>
</linearGradient>
<linearGradient id="paint9_linear" x1="182.005" y1="262.816" x2="240.774" y2="240.14" gradientUnits="userSpaceOnUse">
<stop stop-color="#00E5FF"/>
<stop offset="1" stop-color="#008CFF"/>
</linearGradient>
<linearGradient id="paint10_linear" x1="477.306" y1="124.588" x2="442.263" y2="100.658" gradientUnits="userSpaceOnUse">
<stop stop-color="#00E5FF"/>
<stop offset="1" stop-color="#008CFF"/>
</linearGradient>
<linearGradient id="paint11_linear" x1="489.69" y1="83.9149" x2="513.569" y2="60.9785" gradientUnits="userSpaceOnUse">
<stop stop-color="#00E5FF"/>
<stop offset="1" stop-color="#008CFF"/>
</linearGradient>
<linearGradient id="paint12_linear" x1="-43.3761" y1="80.5293" x2="88.0166" y2="187.209" gradientUnits="userSpaceOnUse">
<stop stop-color="#1672EB"/>
<stop offset="1" stop-color="#001F51"/>
</linearGradient>
<linearGradient id="paint13_linear" x1="499.934" y1="101.539" x2="390.556" y2="144.183" gradientUnits="userSpaceOnUse">
<stop stop-color="white"/>
<stop offset="0.3877" stop-color="#EEF4FF"/>
<stop offset="1" stop-color="#C4DAFF"/>
</linearGradient>
<linearGradient id="paint14_linear" x1="381.617" y1="129.653" x2="370.473" y2="99.6582" gradientUnits="userSpaceOnUse">
<stop stop-color="#EAECED"/>
<stop offset="1" stop-color="#FFFCFC"/>
</linearGradient>
<linearGradient id="paint15_linear" x1="342.568" y1="115.439" x2="370.187" y2="140.45" gradientUnits="userSpaceOnUse">
<stop stop-color="white"/>
<stop offset="0.3877" stop-color="#EEF4FF"/>
<stop offset="1" stop-color="#C4DAFF"/>
</linearGradient>
<linearGradient id="paint16_linear" x1="334.339" y1="151.408" x2="283.491" y2="132.512" gradientUnits="userSpaceOnUse">
<stop stop-color="#005BDC"/>
<stop offset="1" stop-color="#0095FB"/>
</linearGradient>
<linearGradient id="paint17_linear" x1="421.374" y1="410.699" x2="451.511" y2="406.919" gradientUnits="userSpaceOnUse">
<stop stop-color="#FFCD76"/>
<stop offset="1" stop-color="#FF7154"/>
</linearGradient>
<linearGradient id="paint18_linear" x1="426.522" y1="388.263" x2="574.817" y2="324.013" gradientUnits="userSpaceOnUse">
<stop stop-color="#FFCD76"/>
<stop offset="1" stop-color="#FF7154"/>
</linearGradient>
<linearGradient id="paint19_linear" x1="263.997" y1="578.17" x2="411.991" y2="477.385" gradientUnits="userSpaceOnUse">
<stop stop-color="#00E5FF"/>
<stop offset="1" stop-color="#0078DA"/>
</linearGradient>
<linearGradient id="paint20_linear" x1="348.14" y1="416.911" x2="409.507" y2="358.856" gradientUnits="userSpaceOnUse">
<stop stop-color="#00E5FF"/>
<stop offset="1" stop-color="#008CFF"/>
</linearGradient>
<linearGradient id="paint21_linear" x1="349.544" y1="269.434" x2="446.148" y2="304.792" gradientUnits="userSpaceOnUse">
<stop stop-color="#6060FA"/>
<stop offset="1" stop-color="#161874"/>
</linearGradient>
<linearGradient id="paint22_linear" x1="251.83" y1="186.296" x2="243.242" y2="161.281" gradientUnits="userSpaceOnUse">
<stop stop-color="#EAECED"/>
<stop offset="1" stop-color="#FFFCFC"/>
</linearGradient>
<linearGradient id="paint23_linear" x1="218.511" y1="174.435" x2="241.046" y2="195.885" gradientUnits="userSpaceOnUse">
<stop stop-color="white"/>
<stop offset="0.3877" stop-color="#EEF4FF"/>
<stop offset="1" stop-color="#C4DAFF"/>
</linearGradient>
<linearGradient id="paint24_linear" x1="231.001" y1="169.591" x2="229.581" y2="181.502" gradientUnits="userSpaceOnUse">
<stop stop-color="#1672EB"/>
<stop offset="1" stop-color="#001F51"/>
</linearGradient>
<linearGradient id="paint25_linear" x1="229.135" y1="188.253" x2="229.177" y2="200.248" gradientUnits="userSpaceOnUse">
<stop stop-color="#1672EB"/>
<stop offset="1" stop-color="#001F51"/>
</linearGradient>
<linearGradient id="paint26_linear" x1="278.329" y1="21.708" x2="197.755" y2="60.1642" gradientUnits="userSpaceOnUse">
<stop stop-color="#065CBD"/>
<stop offset="1" stop-color="#00F0D7"/>
</linearGradient>
<linearGradient id="paint27_linear" x1="276.389" y1="106.572" x2="297.007" y2="106.572" gradientUnits="userSpaceOnUse">
<stop stop-color="#FFCD76"/>
<stop offset="1" stop-color="#FF7154"/>
</linearGradient>
</defs>
</svg>
